<svg xmlns="http://www.w3.org/2000/svg" xmlns:svg="http://www.w3.org/2000/svg" id="svg2" width="2302.417" height="2302.417" version="1.1" viewBox="0 0 2302.417 2302.417"><metadata id="metadata8"/><ellipse id="path4491" cx="1151.208" cy="1151.209" fill="#fff" fill-opacity="1" stroke="#a5df56" stroke-dasharray="none" stroke-miterlimit="4" stroke-opacity="1" stroke-width="10" rx="1148.708" ry="1148.709"/><path id="path3682" fill="#40c200" fill-opacity="1" stroke="#000" stroke-linecap="butt" stroke-linejoin="miter" stroke-opacity="1" stroke-width="1" d="m 989.29976,1056.3261 240.93964,138.0996 176.2973,-349.65634 c 0,0 162.6641,67.70145 199.8036,170.42074 43.0428,119.0467 7.4717,213.2949 -64.6423,317.3351 -107.1367,81.9058 -184.51,80.6778 -323.2118,44.0744 l -446.9914,-241.9217 -90,160.0001 360,200 -60,370 h -340 l -50,170 h 1120 l -40,-170 h -370 l -40,-270 c 0,0 287.1092,17.8011 391.1451,-92.445 79.7211,-84.4799 132.8335,-169.9488 154.3646,-284.0922 20.544,-108.9107 14.4903,-233.46291 -32.8253,-333.27424 C 1718.6262,767.67887 1500.5619,633.2126 1500.5619,633.2126 l 149.8528,-323.2117 c 191.0801,4.67699 -258.9199,-235.323004 -158.9199,-75.32301"/></svg>