<svg xmlns="http://www.w3.org/2000/svg" xmlns:svg="http://www.w3.org/2000/svg" id="svg6" width="1280pt" height="1280pt" preserveAspectRatio="xMidYMid meet" version="1.0" viewBox="0 0 916 1280"><metadata id="metadata12"/><path id="path2" fill="#fff" stroke="none" stroke-width=".1" d="m 239.38746,29.364965 c -7.427,0.0156 -14.75537,0.30468 -22.16162,0.86718 -52.9,3.9 -99.4005,16.4 -145.000485,39 -33.3,16.4 -56.29903,31.900005 -84.99903,57.000015 -67.7,59.29999 -114.499905,147.49951 -124.899905,235.99951 -0.9,7.3 -2.1001,16.9999 -2.6001,21.39991 -2.3,18.49999 -0.50088,61.10048 3.59912,86.50048 9.6,59.10001 31.0999,112.49952 64.899905,160.99952 2.8,4.1 8.3,12.40098 12,18.50097 3.7,6 9.60049,15.50001 13.00049,21 5.4,8.70002 28.70039,46.1995 44.9003896,72.49952 2.9,4.70003 9.29981,14.99948 14.2998004,22.9995 4.90001,8.00003 12.69981,20.60048 17.29981,28.0005 4.6,7.40003 13.4,21.6 19.5,31.5 6.1,9.9 19.40049,31.3005 29.50049,47.50051 10,16.2 22.899995,36.89902 28.499995,45.999 5.6,9.09997 20.3001,32.69997 32.6001,52.49997 28.7,46.29995 41.29991,66.70105 58.8999,95.00095 7.8,12.6 18.49932,29.9991 23.79932,38.499 12.5,20.3001 18.10059,29.001 18.60059,29.001 0.19999,0 2.49912,-3.5003 5.09912,-7.8003 2.6,-4.2 5.80049,-9.3002 7.00049,-11.2002 1.2,-1.8999 5.1997,-8.1995 8.69971,-13.9995 3.6,-5.7999 10.6998,-17.3 15.7998,-25.5 5.1,-8.3 15.80118,-25.4998 23.70117,-38.2998 12.2,-19.8 25.59885,-41.50015 61.79882,-99.70015 9.3,-14.9 103.70003,-167.09998 147,-236.99998 20.79998,-33.60002 41.00003,-65.7005 45.00001,-71.5005 11.49997,-16.8 18.30105,-28.40049 27.1011,-46.00049 21.49995,-43.1 33.6,-84.59991 39,-133.89991 1.89997,-17.7 1.59937,-65.89912 -0.6006,-81.59912 -6.9,-51.1 -20.60003,-95.00049 -42,-134.50049 -9.6,-17.7 -10.99958,-20.1 -19.5996,-33 -52.89998,-79.5 -134.20111,-136.699915 -226.6011,-159.399915 -16.2,-4 -20.59882,-4.8 -40.79883,-7.5 -19.18125,-2.6125 -35.99946,-3.90156 -52.33886,-3.86718 z m 2.33789,167.767095 A 200,200 0 0 1 441.72634,397.13158 200,200 0 0 1 241.72535,597.13255 200,200 0 0 1 41.725835,397.13158 200,200 0 0 1 241.72535,197.13206 Z"/><path id="path840" fill="#fff" fill-opacity="1" stroke="none" stroke-width=".528" d="m 419.65896,527.31915 -74.23333,74.23333 294.2582,291.58314 -294.2582,291.58318 74.23333,74.2333 291.58312,-294.25821 291.58312,294.25821 74.2333,-74.2333 L 782.80034,893.13562 1077.0585,601.55248 1002.8252,527.31915 711.24208,821.57737 Z" font-family="sans-serif" font-size="1944" font-stretch="normal" font-style="normal" font-variant="normal" font-weight="normal" letter-spacing="0" text-anchor="start" word-spacing="0" writing-mode="lr-tb" style="line-height:1.25;-inkscape-font-specification:'sans-serif, Normal';font-variant-ligatures:normal;font-variant-caps:normal;font-variant-numeric:normal;font-feature-settings:normal;text-align:start"/></svg>